<?xml version="1.0" encoding="UTF-8"?>
<!-- Generated by Pixelmator Pro 3.6.15 -->
<svg width="714" height="714" viewBox="0 0 714 714" xmlns="http://www.w3.org/2000/svg">
    <path id="Rectangle" fill="#ffffff" fill-rule="evenodd" stroke="none" d="M 16.480984 647.899902 C -7e-06 618.470947 -7e-06 579.221741 -7e-06 500.723267 L -9e-06 213.276733 C -9e-06 134.778259 -9e-06 95.529053 16.480982 66.100098 C 28.128822 45.301453 45.301392 28.128845 66.100105 16.481018 C 95.529037 0 134.778259 0 213.276718 0 L 500.723267 0 C 579.221741 0 618.470947 0 647.899841 16.481018 C 668.698547 28.128845 685.871155 45.301453 697.518982 66.100098 C 714 95.529053 714 134.778259 714 213.276733 L 714 500.723267 C 714 579.221741 714 618.470947 697.518982 647.899902 C 685.871155 668.698608 668.698547 685.871216 647.899841 697.518982 C 618.470947 714 579.221741 714 500.723267 714 L 213.276718 714 C 134.778259 714 95.52903 714 66.100105 697.519043 C 45.301392 685.871216 28.128822 668.698608 16.480984 647.899902 Z M 41.034477 500.723267 L 41.034473 213.276733 C 41.034473 185.316467 41.074974 174.441467 41.286087 161.998413 C 41.547394 146.596436 42.062519 134.772095 42.935181 124.900879 C 44.600563 106.062805 47.526428 94.644653 52.283401 86.150452 C 60.233521 71.954529 71.954483 60.233521 86.150429 52.283447 C 94.644638 47.526489 106.062836 44.600525 124.900902 42.935181 C 134.772079 42.062561 146.59642 41.547424 161.998367 41.286072 C 174.441467 41.075012 185.316437 41.034485 213.276718 41.034485 L 500.723267 41.034485 C 528.683533 41.034485 539.558533 41.075012 552.001587 41.286072 C 567.403564 41.547424 579.227905 42.062561 589.09906 42.935181 C 607.937134 44.600525 619.355347 47.526489 627.849548 52.283386 C 642.045471 60.233521 653.766479 71.954529 661.716553 86.150452 C 666.473511 94.644653 669.399475 106.062866 671.064819 124.900879 C 671.937439 134.772095 672.452576 146.596436 672.713928 161.998413 C 672.924988 174.441467 672.965515 185.316467 672.965515 213.276733 L 672.965515 500.723267 C 672.965515 528.683594 672.924988 539.558533 672.713928 552.001648 C 672.452576 567.403625 671.937439 579.227905 671.064819 589.099121 C 669.399475 607.937134 666.473572 619.355347 661.716614 627.849548 C 653.766418 642.045532 642.045471 653.766479 627.849609 661.716553 C 619.355347 666.473511 607.937134 669.399475 589.09906 671.064819 C 579.227905 671.937439 567.403564 672.452576 552.001587 672.713928 C 539.558533 672.924988 528.683533 672.965515 500.723267 672.965515 L 213.276718 672.965515 C 185.316437 672.965515 174.441467 672.924988 161.998367 672.713928 C 146.596405 672.452576 134.772064 671.937439 124.900894 671.064819 C 106.062798 669.399475 94.6446 666.473572 86.150406 661.716614 C 71.954475 653.766541 60.233532 642.045532 52.283424 627.849609 C 47.526424 619.355347 44.600563 607.937195 42.935181 589.099121 C 42.062519 579.227905 41.547398 567.403625 41.286087 552.001648 C 41.074978 539.558533 41.034477 528.683594 41.034477 500.723267 Z"/>
    <path id="-copy-2" fill="#ffffff" fill-rule="evenodd" stroke="none" d="M 134.352921 228.798309 C 115.18367 240.348969 131.403809 269.59436 152.539139 256.323364 L 223.317917 212.086609 C 237.326202 203.239288 236.588928 182.349731 223.317917 173.993896 L 152.539139 129.757202 C 131.403809 116.486145 114.937935 145.485779 134.352921 157.282166 L 193.580994 192.917358 Z M 238.063507 256.077576 C 238.063507 264.679138 244.944778 271.806274 253.792114 271.806274 L 347.426483 271.806274 C 356.273865 271.806274 363.155182 264.679138 363.155182 256.077576 C 363.155182 247.230194 356.273865 240.10321 347.426483 240.10321 L 253.792114 240.10321 C 244.944778 240.10321 238.063507 247.230194 238.063507 256.077576 Z"/>
    <path id="0" fill="#ffffff" fill-rule="evenodd" stroke="none" d="M 514.873901 271.89621 C 548.435852 271.89621 567.393005 245.685059 567.393005 199.162598 C 567.393005 152.640137 548.435852 126.428955 514.873901 126.428955 C 481.408661 126.428955 462.451569 152.640137 462.451569 199.162598 C 462.451569 245.685059 481.408661 271.89621 514.873901 271.89621 Z M 489.339752 199.162598 C 489.339752 166.761292 498.334747 149.158203 514.873901 149.158203 C 525.803284 149.158203 533.347473 156.702393 537.313049 171.017029 L 489.339752 202.741241 C 489.339752 201.580566 489.339752 200.419922 489.339752 199.162598 Z M 514.873901 249.166962 C 504.04126 249.166962 496.49704 241.719543 492.531494 227.501587 L 540.504761 195.777344 C 540.504761 196.937988 540.504761 198.001953 540.504761 199.162598 C 540.504761 231.660583 531.509827 249.166962 514.873901 249.166962 Z"/>
    <path id="1" fill="#ffffff" fill-rule="evenodd" stroke="none" d="M 567.158264 587.804138 L 567.158264 563.912415 L 529.959778 563.912415 L 529.959778 442.336884 L 501.934875 442.336884 L 462.619476 468.648071 L 462.619476 495.664856 L 500.120331 470.765015 L 501.934875 470.765015 L 501.934875 563.912415 L 462.720245 563.912415 L 462.720245 587.804138 Z"/>
    <path id="path1" fill="#ffffff" fill-rule="evenodd" stroke="none" d="M 198.938843 587.861755 C 232.500763 587.861755 251.457947 561.650574 251.457947 515.128113 C 251.457947 468.605682 232.500763 442.394501 198.938843 442.394501 C 165.473633 442.394501 146.516464 468.605682 146.516464 515.128113 C 146.516464 561.650574 165.473633 587.861755 198.938843 587.861755 Z M 173.404694 515.128113 C 173.404694 482.726807 182.399704 465.123779 198.938843 465.123779 C 209.86824 465.123779 217.412399 472.667908 221.37793 486.982544 L 173.404694 518.706787 C 173.404694 517.546143 173.404694 516.385437 173.404694 515.128113 Z M 198.938843 565.132507 C 188.106171 565.132507 180.561981 557.684937 176.596481 543.467102 L 224.569717 511.742859 C 224.569717 512.903564 224.569717 513.967468 224.569717 515.128113 C 224.569717 547.626099 215.574738 565.132507 198.938843 565.132507 Z"/>
</svg>
