<?xml version="1.0" encoding="UTF-8"?>
<!-- Generated by Pixelmator Pro 3.6.15 -->
<svg width="447" height="481" viewBox="0 0 447 481" xmlns="http://www.w3.org/2000/svg">
    <path id="path1" fill="#ffffff" fill-rule="evenodd" stroke="none" d="M 185.266617 432.04718 C 202.247681 448.890808 220.03421 461.346375 238.626648 469.41394 C 257.219269 477.481476 275.943604 481.399109 294.800446 481.166901 C 313.657104 480.934662 331.937134 476.805511 349.64093 468.779449 C 367.34494 460.753387 383.867249 449.138428 399.208496 433.934631 C 422.869843 410.138214 437.659546 385.50885 443.577789 360.04538 C 449.496063 334.581909 447.738342 306.933563 438.304504 277.099243 C 435.795013 268.108704 432.728851 258.926239 429.105438 249.551819 C 425.482208 240.177399 421.443909 230.693985 416.990112 221.101563 C 412.536316 211.509155 407.83371 201.830231 402.882294 192.064819 C 397.930847 182.299408 392.796387 172.586121 387.478638 162.924988 C 384.421753 156.960541 381.202179 150.679138 377.819458 144.08078 C 374.436768 137.482422 371.151794 131.474731 367.964417 126.057678 C 364.777191 120.640594 361.949188 116.608612 359.479797 113.9617 C 355.311554 109.501953 350.528564 107.260864 345.13028 107.238342 C 339.732147 107.21582 334.694427 109.327789 330.01651 113.574249 C 324.826935 118.275665 322.091949 123.949829 321.811127 130.596771 C 321.530334 137.243683 323.181213 145.879944 326.76413 156.505554 L 350.721497 222.498474 C 352.041595 225.88237 352.625519 228.653702 352.473877 230.812469 C 352.322205 232.971237 351.59375 234.63475 350.287842 235.802994 C 348.844727 237.246124 347.143494 237.933334 345.183594 237.864609 C 343.223877 237.795883 340.930237 236.44873 338.302063 233.823135 L 178.381546 73.692719 C 173.625427 69.076599 167.926559 66.768524 161.284378 66.768524 C 154.641998 66.768524 149.018967 69.076599 144.414703 73.692719 C 139.66095 78.434418 137.287918 84.096161 137.295029 90.677917 C 137.302139 97.259674 139.675156 102.851501 144.414703 107.4534 L 259.879028 223.124084 C 257.222626 224.44635 254.494156 225.911987 251.693008 227.520996 C 248.892059 229.130005 246.094864 230.88356 243.300812 232.781662 L 109.520126 98.794617 C 104.901443 94.192719 99.274857 91.891754 92.639786 91.891754 C 86.004509 91.891754 80.309204 94.192719 75.553284 98.794617 C 70.934593 103.550537 68.625549 109.21228 68.625549 115.779816 C 68.625549 122.347351 70.934593 128.007904 75.553284 132.761475 L 207.741562 264.949951 C 205.554352 267.44046 203.470428 270.003235 201.489182 272.638306 C 199.508133 275.273407 197.561646 277.904907 195.649124 280.532898 L 74.561577 159.466461 C 69.822037 154.727112 64.161682 152.353882 57.579929 152.346771 C 50.997974 152.339661 45.405155 154.70578 40.800888 159.445129 C 36.198792 164.184479 33.898041 169.849152 33.898041 176.439209 C 33.898041 183.029266 36.198792 188.69397 40.800888 193.433289 L 172.374435 324.779358 C 171.051956 328.286469 169.905823 331.759827 168.935455 335.199402 C 167.965073 338.638977 167.100739 342.037659 166.342438 345.395477 L 74.952568 254.026947 C 70.333885 249.273376 64.703156 246.892456 58.059788 246.884171 C 51.416218 246.87587 45.793781 249.242584 41.191883 253.984283 C 36.43576 258.737854 34.057995 264.405518 34.057995 270.987244 C 34.057995 277.569031 36.43576 283.162048 41.191883 287.766296 Z"/>
    <path id="Path" fill="none" stroke="#ffffff" stroke-width="20" stroke-opacity="0.75" stroke-linecap="round" d="M 221.505188 15.402588 C 221.505188 15.402588 285.761963 31.451294 315.079651 83.40863"/>
    <path id="path2" fill="none" stroke="#ffffff" stroke-width="20" stroke-opacity="0.75" stroke-linecap="round" d="M 212.81424 51.256042 C 212.81424 51.256042 252.995514 52.760132 286.21814 100.87323"/>
    <path id="Path-copy-2" fill="none" stroke="#ffffff" stroke-width="20" stroke-opacity="0.75" stroke-linecap="round" d="M 93.091568 447.382446 C 93.091568 447.382446 34.269943 416.943848 17.728516 359.624786"/>
    <path id="Path-copy" fill="none" stroke="#ffffff" stroke-width="20" stroke-opacity="0.75" stroke-linecap="round" d="M 109.818787 414.500854 C 109.818787 414.500854 71.068207 403.76828 49.840363 349.288971"/>
</svg>
