<?xml version="1.0" encoding="UTF-8"?>
<!-- Generated by Pixelmator Pro 3.6.15 -->
<svg width="872" height="826" viewBox="0 0 872 826" xmlns="http://www.w3.org/2000/svg">
    <g id="Rectangle">
        <path id="path1" fill="#ffffff" fill-opacity="0.2" fill-rule="evenodd" stroke="none" d="M 0 728.650024 C 0 764.480591 0 782.395874 7.522736 795.828674 C 12.839383 805.322205 20.67779 813.160645 30.171347 818.477295 C 43.604156 826 61.51944 826 97.349998 826 L 162.649994 826 C 198.48056 826 216.395844 826 229.828644 818.477295 C 239.322205 813.160645 247.160614 805.322205 252.477249 795.828674 C 259.999969 782.395874 259.999969 764.480591 259.999969 728.650024 L 260 533.349976 C 260 497.51944 260 479.604156 252.477264 466.171356 C 247.160614 456.677795 239.322205 448.839386 229.828659 443.522736 C 216.395844 436 198.48056 436 162.650009 436 L 97.349998 436 C 61.519436 436 43.604156 436 30.171345 443.522736 C 20.677788 448.839386 12.839381 456.677795 7.522734 466.171356 C -2e-06 479.604156 -2e-06 497.51944 -2e-06 533.349976 Z"/>
        <path id="path2" fill="#ffffff" fill-opacity="0.2" fill-rule="evenodd" stroke="none" d="M 7.522736 795.828674 C 0 782.395874 0 764.480591 0 728.650024 L 0 533.349976 C 0 497.51944 0 479.604156 7.522734 466.171356 C 12.839381 456.677795 20.677788 448.839386 30.171345 443.522736 C 43.604156 436 61.519436 436 97.349998 436 L 162.650009 436 C 198.48056 436 216.395844 436 229.828659 443.522736 C 239.322205 448.839386 247.160614 456.677795 252.477264 466.171356 C 260 479.604156 260 497.51944 260 533.349976 L 259.999969 728.650024 C 259.999969 764.480591 259.999969 782.395874 252.477249 795.828674 C 247.160614 805.322205 239.322205 813.160645 229.828644 818.477295 C 216.395844 826 198.48056 826 162.649994 826 L 97.349998 826 C 61.51944 826 43.604156 826 30.171347 818.477295 C 20.67779 813.160645 12.839383 805.322205 7.522736 795.828674 Z M 20 728.650024 L 19.999998 533.349976 C 19.999998 492.917084 20.849676 483.305878 24.972651 475.943787 C 28.487049 469.668365 33.668369 464.487061 39.943775 460.972656 C 47.305878 456.84967 56.917065 456 97.349998 456 L 162.650009 456 C 203.082932 456 212.694122 456.84967 220.056244 460.972656 C 226.331619 464.487061 231.512955 469.668365 235.027344 475.943787 C 239.150314 483.305878 240 492.917084 240 533.349976 L 239.999969 728.650024 C 239.999969 769.082947 239.150299 778.694153 235.027328 786.056274 C 231.512939 792.331665 226.331604 797.513 220.056213 801.027405 C 212.694138 805.15033 203.082947 806 162.649994 806 L 97.349998 806 C 56.917057 806 47.305859 805.15033 39.943741 801.027344 C 33.668396 797.513 28.487057 792.331665 24.972645 786.056213 C 20.849678 778.694153 20 769.082947 20 728.650024 Z"/>
    </g>
    <g id="Rectangle-copy">
        <path id="path3" fill="#ffffff" fill-opacity="0.2" fill-rule="evenodd" stroke="none" d="M 612 728.650024 C 612 764.480591 612 782.395874 619.522705 795.828674 C 624.839355 805.322205 632.677795 813.160645 642.171326 818.477295 C 655.604126 826 673.519409 826 709.349976 826 L 774.650024 826 C 810.480591 826 828.395874 826 841.828613 818.477295 C 851.322205 813.160645 859.160645 805.322205 864.477234 795.828674 C 872 782.395874 872 764.480591 872 728.650024 L 872 533.349976 C 872 497.51944 872 479.604156 864.477295 466.171356 C 859.160645 456.677795 851.322205 448.839386 841.828674 443.522736 C 828.395874 436 810.480591 436 774.650024 436 L 709.349976 436 C 673.519409 436 655.604126 436 642.171326 443.522736 C 632.677795 448.839386 624.839355 456.677795 619.522705 466.171356 C 612 479.604156 612 497.51944 612 533.349976 Z"/>
        <path id="path4" fill="#ffffff" fill-opacity="0.2" fill-rule="evenodd" stroke="none" d="M 619.522705 795.828674 C 612 782.395874 612 764.480591 612 728.650024 L 612 533.349976 C 612 497.51944 612 479.604156 619.522705 466.171356 C 624.839355 456.677795 632.677795 448.839386 642.171326 443.522736 C 655.604126 436 673.519409 436 709.349976 436 L 774.650024 436 C 810.480591 436 828.395874 436 841.828674 443.522736 C 851.322205 448.839386 859.160645 456.677795 864.477295 466.171356 C 872 479.604156 872 497.51944 872 533.349976 L 872 728.650024 C 872 764.480591 872 782.395874 864.477234 795.828674 C 859.160645 805.322205 851.322205 813.160645 841.828613 818.477295 C 828.395874 826 810.480591 826 774.650024 826 L 709.349976 826 C 673.519409 826 655.604126 826 642.171326 818.477295 C 632.677795 813.160645 624.839355 805.322205 619.522705 795.828674 Z M 632 728.650024 L 632 533.349976 C 632 492.917053 632.84967 483.305847 636.972656 475.943756 C 640.487 469.668396 645.668335 464.487061 651.943787 460.972656 C 659.305847 456.84967 668.917053 456 709.349976 456 L 774.650024 456 C 815.082947 456 824.694153 456.84967 832.056213 460.972656 C 838.331665 464.487061 843.513 469.668396 847.027405 475.943787 C 851.15033 483.305847 852 492.917053 852 533.349976 L 852 728.650024 C 852 769.082947 851.15033 778.694153 847.027344 786.056213 C 843.512939 792.331665 838.331604 797.513 832.056213 801.027344 C 824.694153 805.15033 815.082947 806 774.650024 806 L 709.349976 806 C 668.917053 806 659.305847 805.15033 651.943726 801.027344 C 645.668396 797.513 640.487 792.331604 636.972595 786.056213 C 632.84967 778.694153 632 769.082947 632 728.650024 Z"/>
    </g>
    <g id="Rectangle-copy-2">
        <path id="path5" fill="#ffffff" fill-opacity="0.2" fill-rule="evenodd" stroke="none" d="M 306 728.650024 C 306 764.480591 306 782.395874 313.522736 795.828674 C 318.839386 805.322205 326.677795 813.160645 336.171356 818.477295 C 349.604156 826 367.51944 826 403.350006 826 L 468.649994 826 C 504.48056 826 522.395874 826 535.828613 818.477295 C 545.322205 813.160645 553.160645 805.322205 558.477234 795.828674 C 566 782.395874 566 764.480591 566 728.650024 L 566 533.349976 C 566 497.51944 566 479.604156 558.477295 466.171356 C 553.160645 456.677795 545.322205 448.839386 535.828674 443.522736 C 522.395874 436 504.48056 436 468.650024 436 L 403.350006 436 C 367.51944 436 349.604156 436 336.171356 443.522736 C 326.677795 448.839386 318.839386 456.677795 313.522736 466.171356 C 306 479.604156 306 497.51944 306 533.349976 Z"/>
        <path id="path6" fill="#ffffff" fill-opacity="0.2" fill-rule="evenodd" stroke="none" d="M 313.522736 795.828674 C 306 782.395874 306 764.480591 306 728.650024 L 306 533.349976 C 306 497.51944 306 479.604156 313.522736 466.171356 C 318.839386 456.677795 326.677795 448.839386 336.171356 443.522736 C 349.604156 436 367.51944 436 403.350006 436 L 468.650024 436 C 504.48056 436 522.395874 436 535.828674 443.522736 C 545.322205 448.839386 553.160645 456.677795 558.477295 466.171356 C 566 479.604156 566 497.51944 566 533.349976 L 566 728.650024 C 566 764.480591 566 782.395874 558.477234 795.828674 C 553.160645 805.322205 545.322205 813.160645 535.828613 818.477295 C 522.395874 826 504.48056 826 468.649994 826 L 403.350006 826 C 367.51944 826 349.604156 826 336.171356 818.477295 C 326.677795 813.160645 318.839386 805.322205 313.522736 795.828674 Z M 326 728.650024 L 326 533.349976 C 326 492.917084 326.84967 483.305878 330.972656 475.943787 C 334.487061 469.668365 339.668365 464.487061 345.943787 460.972656 C 353.305878 456.84967 362.917084 456 403.350006 456 L 468.650024 456 C 509.082947 456 518.694153 456.84967 526.056213 460.972656 C 532.331665 464.487061 537.513 469.668396 541.027405 475.943787 C 545.15033 483.305847 546 492.917053 546 533.349976 L 546 728.650024 C 546 769.082947 545.15033 778.694153 541.027344 786.056213 C 537.512939 792.331665 532.331604 797.513 526.056213 801.027344 C 518.694153 805.15033 509.082916 806 468.649994 806 L 403.350006 806 C 362.917053 806 353.305847 805.15033 345.943756 801.027344 C 339.668396 797.513 334.487061 792.331665 330.972656 786.056213 C 326.84967 778.694153 326 769.082947 326 728.650024 Z"/>
    </g>
    <g id="Rectangle-copy-5">
        <path id="path7" fill="#ffffff" fill-opacity="0.2" fill-rule="evenodd" stroke="none" d="M 0 292.650024 C 0 328.48056 0 346.395844 7.522736 359.828644 C 12.839383 369.322205 20.67779 377.160614 30.171347 382.477264 C 43.604156 390 61.51944 390 97.349998 390 L 162.649994 390 C 198.48056 390 216.395844 390 229.828644 382.477264 C 239.322205 377.160614 247.160614 369.322205 252.477249 359.828644 C 259.999969 346.395844 259.999969 328.48056 259.999969 292.650024 L 260 97.349976 C 260 61.519409 260 43.604126 252.477264 30.171387 C 247.160614 20.677795 239.322205 12.839355 229.828659 7.522705 C 216.395844 0 198.48056 0 162.650009 0 L 97.349998 0 C 61.519436 0 43.604156 0 30.171345 7.522705 C 20.677788 12.839355 12.839381 20.677795 7.522734 30.171387 C -2e-06 43.604126 -2e-06 61.519409 -2e-06 97.349976 Z"/>
        <path id="path8" fill="#ffffff" fill-opacity="0.2" fill-rule="evenodd" stroke="none" d="M 7.522736 359.828644 C 0 346.395844 0 328.48056 0 292.650024 L 0 97.349976 C 0 61.519409 0 43.604126 7.522734 30.171387 C 12.839381 20.677795 20.677788 12.839355 30.171345 7.522705 C 43.604156 0 61.519436 0 97.349998 0 L 162.650009 0 C 198.48056 0 216.395844 0 229.828659 7.522705 C 239.322205 12.839355 247.160614 20.677795 252.477264 30.171387 C 260 43.604126 260 61.519409 260 97.349976 L 259.999969 292.650024 C 259.999969 328.48056 259.999969 346.395844 252.477249 359.828644 C 247.160614 369.322205 239.322205 377.160614 229.828644 382.477264 C 216.395844 390 198.48056 390 162.649994 390 L 97.349998 390 C 61.51944 390 43.604156 390 30.171347 382.477264 C 20.67779 377.160614 12.839383 369.322205 7.522736 359.828644 Z M 20 292.650024 L 19.999998 97.349976 C 19.999998 56.917068 20.849676 47.305878 24.972631 39.943851 C 28.48707 33.668346 33.668392 28.487007 39.943775 24.972622 C 47.305859 20.849674 56.917053 20 97.349998 20 L 162.650009 20 C 203.082947 20 212.694138 20.849676 220.056274 24.972643 C 226.331604 28.487005 231.512924 33.66835 235.027328 39.94379 C 239.150314 47.305878 240 56.917068 240 97.349976 L 239.999969 292.650024 C 239.999969 333.082947 239.150299 342.694122 235.027328 350.056213 C 231.512939 356.331635 226.331619 361.512939 220.056213 365.027344 C 212.694122 369.15033 203.082932 370 162.649994 370 L 97.349998 370 C 56.917068 370 47.305878 369.15033 39.943771 365.027344 C 33.668373 361.512939 28.487051 356.331635 24.972658 350.056213 C 20.849678 342.694122 20 333.082916 20 292.650024 Z"/>
    </g>
    <g id="Rectangle-copy-4">
        <path id="path9" fill="#ffffff" fill-opacity="0.2" fill-rule="evenodd" stroke="none" d="M 612 292.650024 C 612 328.48056 612 346.395844 619.522705 359.828644 C 624.839355 369.322205 632.677795 377.160614 642.171326 382.477264 C 655.604126 390 673.519409 390 709.349976 390 L 774.650024 390 C 810.480591 390 828.395874 390 841.828613 382.477264 C 851.322205 377.160614 859.160645 369.322205 864.477234 359.828644 C 872 346.395844 872 328.48056 872 292.650024 L 872 97.349976 C 872 61.519409 872 43.604126 864.477295 30.171387 C 859.160645 20.677795 851.322205 12.839355 841.828674 7.522705 C 828.395874 0 810.480591 0 774.650024 0 L 709.349976 0 C 673.519409 0 655.604126 0 642.171326 7.522705 C 632.677795 12.839355 624.839355 20.677795 619.522705 30.171387 C 612 43.604126 612 61.519409 612 97.349976 Z"/>
        <path id="path10" fill="#ffffff" fill-opacity="0.2" fill-rule="evenodd" stroke="none" d="M 619.522705 359.828644 C 612 346.395844 612 328.48056 612 292.650024 L 612 97.349976 C 612 61.519409 612 43.604126 619.522705 30.171387 C 624.839355 20.677795 632.677795 12.839355 642.171326 7.522705 C 655.604126 0 673.519409 0 709.349976 0 L 774.650024 0 C 810.480591 0 828.395874 0 841.828674 7.522705 C 851.322205 12.839355 859.160645 20.677795 864.477295 30.171387 C 872 43.604126 872 61.519409 872 97.349976 L 872 292.650024 C 872 328.48056 872 346.395844 864.477234 359.828644 C 859.160645 369.322205 851.322205 377.160614 841.828613 382.477264 C 828.395874 390 810.480591 390 774.650024 390 L 709.349976 390 C 673.519409 390 655.604126 390 642.171326 382.477264 C 632.677795 377.160614 624.839355 369.322205 619.522705 359.828644 Z M 632 292.650024 L 632 97.349976 C 632 56.917057 632.84967 47.305859 636.972595 39.943821 C 640.487 33.668373 645.668396 28.487015 651.943787 24.97261 C 659.305847 20.849676 668.917053 20 709.349976 20 L 774.650024 20 C 815.082947 20 824.694153 20.849676 832.056274 24.972639 C 838.331604 28.487015 843.513 33.668373 847.027344 39.94379 C 851.15033 47.305859 852 56.917057 852 97.349976 L 852 292.650024 C 852 333.082916 851.15033 342.694092 847.027344 350.056183 C 843.512939 356.331635 838.331665 361.512939 832.056213 365.027344 C 824.694153 369.15033 815.082947 370 774.650024 370 L 709.349976 370 C 668.917053 370 659.305847 369.15033 651.943787 365.027344 C 645.668335 361.512939 640.487 356.331604 636.972595 350.056213 C 632.84967 342.694153 632 333.082947 632 292.650024 Z"/>
    </g>
    <g id="Rectangle-copy-3">
        <path id="path11" fill="#ffffff" fill-opacity="0.2" fill-rule="evenodd" stroke="none" d="M 306 292.650024 C 306 328.48056 306 346.395844 313.522736 359.828644 C 318.839386 369.322205 326.677795 377.160614 336.171356 382.477264 C 349.604156 390 367.51944 390 403.350006 390 L 468.649994 390 C 504.48056 390 522.395874 390 535.828613 382.477264 C 545.322205 377.160614 553.160645 369.322205 558.477234 359.828644 C 566 346.395844 566 328.48056 566 292.650024 L 566 97.349976 C 566 61.519409 566 43.604126 558.477295 30.171387 C 553.160645 20.677795 545.322205 12.839355 535.828674 7.522705 C 522.395874 0 504.48056 0 468.650024 0 L 403.350006 0 C 367.51944 0 349.604156 0 336.171356 7.522705 C 326.677795 12.839355 318.839386 20.677795 313.522736 30.171387 C 306 43.604126 306 61.519409 306 97.349976 Z"/>
        <path id="path12" fill="#ffffff" fill-opacity="0.2" fill-rule="evenodd" stroke="none" d="M 313.522736 359.828644 C 306 346.395844 306 328.48056 306 292.650024 L 306 97.349976 C 306 61.519409 306 43.604126 313.522736 30.171387 C 318.839386 20.677795 326.677795 12.839355 336.171356 7.522705 C 349.604156 0 367.51944 0 403.350006 0 L 468.650024 0 C 504.48056 0 522.395874 0 535.828674 7.522705 C 545.322205 12.839355 553.160645 20.677795 558.477295 30.171387 C 566 43.604126 566 61.519409 566 97.349976 L 566 292.650024 C 566 328.48056 566 346.395844 558.477234 359.828644 C 553.160645 369.322205 545.322205 377.160614 535.828613 382.477264 C 522.395874 390 504.48056 390 468.649994 390 L 403.350006 390 C 367.51944 390 349.604156 390 336.171356 382.477264 C 326.677795 377.160614 318.839386 369.322205 313.522736 359.828644 Z M 326 292.650024 L 326 97.349976 C 326 56.917068 326.84967 47.305878 330.972626 39.943851 C 334.487061 33.66835 339.668396 28.487009 345.943787 24.972624 C 353.305847 20.849676 362.917053 20 403.350006 20 L 468.650024 20 C 509.082947 20 518.694153 20.849676 526.056274 24.972639 C 532.331604 28.487015 537.513 33.668373 541.027344 39.94379 C 545.15033 47.305859 546 56.917057 546 97.349976 L 546 292.650024 C 546 333.082916 545.15033 342.694092 541.027344 350.056183 C 537.512939 356.331635 532.331665 361.512939 526.056213 365.027344 C 518.694153 369.15033 509.082916 370 468.649994 370 L 403.350006 370 C 362.917084 370 353.305878 369.15033 345.943787 365.027344 C 339.668365 361.512939 334.487061 356.331635 330.972656 350.056213 C 326.84967 342.694122 326 333.082916 326 292.650024 Z"/>
    </g>
</svg>
